<svg width="297" height="61" viewBox="0 0 297 61" fill="none" xmlns="http://www.w3.org/2000/svg">
<path d="M290.148 47.6591C288.511 47.6591 287.11 47.0833 285.943 45.9318C284.792 44.7803 284.224 43.3864 284.239 41.75C284.224 40.1439 284.792 38.7727 285.943 37.6364C287.11 36.4848 288.511 35.9091 290.148 35.9091C291.693 35.9091 293.057 36.4848 294.239 37.6364C295.436 38.7727 296.042 40.1439 296.057 41.75C296.042 42.8409 295.754 43.8333 295.193 44.7273C294.648 45.6212 293.928 46.3333 293.034 46.8636C292.155 47.3939 291.193 47.6591 290.148 47.6591Z" fill="#00B074"/>
<path d="M254.756 60.0909C253.422 60.0909 252.165 59.9849 250.983 59.7727C249.801 59.5758 248.786 59.3106 247.938 58.9773L250.392 50.9091C251.483 51.2727 252.468 51.4849 253.347 51.5455C254.241 51.6061 255.006 51.4621 255.642 51.1136C256.294 50.7803 256.794 50.1818 257.142 49.3182L257.574 48.2727L245.165 12.0909H256.801L263.233 37H263.597L270.119 12.0909H281.824L268.665 50.3409C268.028 52.25 267.127 53.9318 265.96 55.3864C264.809 56.8561 263.316 58.0076 261.483 58.8409C259.665 59.6742 257.422 60.0909 254.756 60.0909Z" fill="#1E1E1E"/>
<path d="M241.625 22.75L231.42 23.0227C231.314 22.2954 231.027 21.6515 230.557 21.0909C230.087 20.5151 229.474 20.0682 228.716 19.75C227.974 19.4167 227.11 19.25 226.125 19.25C224.837 19.25 223.739 19.5076 222.83 20.0227C221.936 20.5379 221.496 21.2348 221.511 22.1136C221.496 22.7954 221.769 23.3863 222.33 23.8863C222.905 24.3863 223.928 24.7879 225.398 25.0909L232.125 26.3636C235.61 27.0303 238.201 28.1364 239.898 29.6818C241.61 31.2273 242.473 33.2727 242.489 35.8182C242.473 38.2121 241.761 40.2954 240.352 42.0682C238.958 43.8409 237.049 45.2197 234.625 46.2045C232.201 47.1742 229.428 47.6591 226.307 47.6591C221.322 47.6591 217.39 46.6364 214.511 44.5909C211.648 42.5303 210.011 39.7727 209.602 36.3182L220.58 36.0454C220.822 37.3182 221.451 38.2879 222.466 38.9545C223.481 39.6212 224.777 39.9545 226.352 39.9545C227.777 39.9545 228.936 39.6894 229.83 39.1591C230.723 38.6288 231.178 37.9242 231.193 37.0454C231.178 36.2576 230.83 35.6288 230.148 35.1591C229.466 34.6742 228.398 34.2954 226.943 34.0227L220.852 32.8636C217.352 32.2273 214.746 31.053 213.034 29.3409C211.322 27.6136 210.473 25.4167 210.489 22.75C210.473 20.4167 211.095 18.4242 212.352 16.7727C213.61 15.106 215.398 13.8333 217.716 12.9545C220.034 12.0757 222.769 11.6364 225.92 11.6364C230.648 11.6364 234.375 12.6288 237.102 14.6136C239.83 16.5833 241.337 19.2954 241.625 22.75Z" fill="#1E1E1E"/>
<path d="M183.489 47.5909C181.261 47.5909 179.284 47.2197 177.557 46.4773C175.845 45.7197 174.489 44.5833 173.489 43.0682C172.504 41.5379 172.011 39.6212 172.011 37.3182C172.011 35.3788 172.352 33.7424 173.034 32.4091C173.716 31.0757 174.655 29.9924 175.852 29.1591C177.049 28.3257 178.428 27.697 179.989 27.2727C181.549 26.8333 183.216 26.5379 184.989 26.3863C186.973 26.2045 188.572 26.0151 189.784 25.8182C190.996 25.6061 191.875 25.3106 192.42 24.9318C192.981 24.5379 193.261 23.9848 193.261 23.2727V23.1591C193.261 21.9924 192.86 21.0909 192.057 20.4545C191.254 19.8182 190.17 19.5 188.807 19.5C187.337 19.5 186.155 19.8182 185.261 20.4545C184.367 21.0909 183.799 21.9697 183.557 23.0909L173.307 22.7273C173.61 20.606 174.39 18.7121 175.648 17.0454C176.92 15.3636 178.663 14.0454 180.875 13.0909C183.102 12.1212 185.777 11.6364 188.898 11.6364C191.125 11.6364 193.178 11.9015 195.057 12.4318C196.936 12.947 198.572 13.7045 199.966 14.7045C201.36 15.6894 202.436 16.9015 203.193 18.3409C203.966 19.7803 204.352 21.4242 204.352 23.2727V47H193.898V42.1364H193.625C193.004 43.3182 192.208 44.3182 191.239 45.1364C190.284 45.9545 189.155 46.5682 187.852 46.9773C186.564 47.3864 185.11 47.5909 183.489 47.5909ZM186.92 40.3182C188.117 40.3182 189.193 40.0757 190.148 39.5909C191.117 39.106 191.89 38.4394 192.466 37.5909C193.042 36.7273 193.33 35.7273 193.33 34.5909V31.2727C193.011 31.4394 192.625 31.5909 192.17 31.7273C191.731 31.8636 191.246 31.9924 190.716 32.1136C190.186 32.2348 189.64 32.3409 189.08 32.4318C188.519 32.5227 187.981 32.606 187.466 32.6818C186.42 32.8485 185.526 33.106 184.784 33.4545C184.057 33.803 183.496 34.2576 183.102 34.8182C182.723 35.3636 182.534 36.0151 182.534 36.7727C182.534 37.9242 182.943 38.803 183.761 39.4091C184.595 40.0151 185.648 40.3182 186.92 40.3182Z" fill="#1E1E1E"/>
<path d="M134.148 47V0.454529H166.602V9.59089H145.398V19.1363H164.943V28.2954H145.398V37.8636H166.602V47H134.148Z" fill="#1E1E1E"/>
<path d="M74.8977 47V12.0909H85.4659V18.5H85.8522C86.5795 16.3788 87.8068 14.7045 89.5341 13.4773C91.2613 12.25 93.3219 11.6364 95.7159 11.6364C98.1401 11.6364 100.216 12.2576 101.943 13.5C103.67 14.7424 104.769 16.4091 105.239 18.5H105.602C106.254 16.4242 107.526 14.7651 109.42 13.5227C111.314 12.2651 113.549 11.6364 116.125 11.6364C119.428 11.6364 122.11 12.697 124.17 14.8182C126.231 16.9242 127.261 19.8182 127.261 23.5V47H116.148V26.0454C116.148 24.303 115.701 22.9773 114.807 22.0682C113.913 21.1439 112.754 20.6818 111.33 20.6818C109.799 20.6818 108.595 21.1818 107.716 22.1818C106.852 23.1667 106.42 24.4924 106.42 26.1591V47H95.7386V25.9318C95.7386 24.3106 95.2992 23.0303 94.4204 22.0909C93.5416 21.1515 92.3826 20.6818 90.9432 20.6818C89.9735 20.6818 89.1174 20.9167 88.375 21.3863C87.6326 21.8409 87.0492 22.4924 86.625 23.3409C86.2159 24.1894 86.0113 25.1894 86.0113 26.3409V47H74.8977Z" fill="#1E1E1E"/>
<path d="M47.2386 47.5909C45.0114 47.5909 43.0341 47.2197 41.3068 46.4773C39.5947 45.7197 38.2386 44.5833 37.2386 43.0682C36.2538 41.5379 35.7614 39.6212 35.7614 37.3182C35.7614 35.3788 36.1023 33.7424 36.7841 32.4091C37.4659 31.0757 38.4053 29.9924 39.6023 29.1591C40.7992 28.3257 42.178 27.697 43.7386 27.2727C45.2992 26.8333 46.9659 26.5379 48.7386 26.3863C50.7235 26.2045 52.322 26.0151 53.5341 25.8182C54.7462 25.6061 55.625 25.3106 56.1704 24.9318C56.731 24.5379 57.0114 23.9848 57.0114 23.2727V23.1591C57.0114 21.9924 56.6098 21.0909 55.8068 20.4545C55.0038 19.8182 53.9204 19.5 52.5568 19.5C51.0871 19.5 49.9053 19.8182 49.0114 20.4545C48.1174 21.0909 47.5492 21.9697 47.3068 23.0909L37.0568 22.7273C37.3598 20.606 38.1401 18.7121 39.3977 17.0454C40.6704 15.3636 42.4129 14.0454 44.625 13.0909C46.8523 12.1212 49.5265 11.6364 52.6477 11.6364C54.875 11.6364 56.928 11.9015 58.8068 12.4318C60.6856 12.947 62.322 13.7045 63.7159 14.7045C65.1098 15.6894 66.1856 16.9015 66.9432 18.3409C67.7159 19.7803 68.1023 21.4242 68.1023 23.2727V47H57.6477V42.1364H57.375C56.7538 43.3182 55.9583 44.3182 54.9886 45.1364C54.0341 45.9545 52.9053 46.5682 51.6023 46.9773C50.3144 47.3864 48.8598 47.5909 47.2386 47.5909ZM50.6704 40.3182C51.8674 40.3182 52.9432 40.0757 53.8977 39.5909C54.8674 39.106 55.6401 38.4394 56.2159 37.5909C56.7917 36.7273 57.0795 35.7273 57.0795 34.5909V31.2727C56.7614 31.4394 56.375 31.5909 55.9204 31.7273C55.481 31.8636 54.9962 31.9924 54.4659 32.1136C53.9356 32.2348 53.3901 32.3409 52.8295 32.4318C52.2689 32.5227 51.7311 32.606 51.2159 32.6818C50.1704 32.8485 49.2765 33.106 48.5341 33.4545C47.8068 33.803 47.2462 34.2576 46.8523 34.8182C46.4735 35.3636 46.2841 36.0151 46.2841 36.7727C46.2841 37.9242 46.6932 38.803 47.5114 39.4091C48.3447 40.0151 49.3977 40.3182 50.6704 40.3182Z" fill="#1E1E1E"/>
<path d="M0.522705 47V0.454529H32.2954V9.59089H11.7727V19.1363H30.2727V28.2954H11.7727V47H0.522705Z" fill="#1E1E1E"/>
</svg>
