<svg width="235" height="35" viewBox="0 0 235 35" fill="none" xmlns="http://www.w3.org/2000/svg">
<path d="M22.912 0.303999V6.88H9.184V13.984H19.456V20.368H9.184V34H0.976V0.303999H22.912ZM25.594 20.56C25.594 17.808 26.106 15.392 27.13 13.312C28.186 11.232 29.61 9.632 31.402 8.512C33.194 7.392 35.194 6.832 37.402 6.832C39.29 6.832 40.938 7.216 42.346 7.984C43.786 8.752 44.89 9.76 45.658 11.008V7.216H53.866V34H45.658V30.208C44.858 31.456 43.738 32.464 42.298 33.232C40.89 34 39.242 34.384 37.354 34.384C35.178 34.384 33.194 33.824 31.402 32.704C29.61 31.552 28.186 29.936 27.13 27.856C26.106 25.744 25.594 23.312 25.594 20.56ZM45.658 20.608C45.658 18.56 45.082 16.944 43.93 15.76C42.81 14.576 41.434 13.984 39.802 13.984C38.17 13.984 36.778 14.576 35.626 15.76C34.506 16.912 33.946 18.512 33.946 20.56C33.946 22.608 34.506 24.24 35.626 25.456C36.778 26.64 38.17 27.232 39.802 27.232C41.434 27.232 42.81 26.64 43.93 25.456C45.082 24.272 45.658 22.656 45.658 20.608ZM93.9801 6.928C97.3081 6.928 99.9481 7.936 101.9 9.952C103.884 11.968 104.876 14.768 104.876 18.352V34H96.7161V19.456C96.7161 17.728 96.2521 16.4 95.3241 15.472C94.4281 14.512 93.1801 14.032 91.5801 14.032C89.9801 14.032 88.7161 14.512 87.7881 15.472C86.8921 16.4 86.4441 17.728 86.4441 19.456V34H78.2841V19.456C78.2841 17.728 77.8201 16.4 76.8921 15.472C75.9961 14.512 74.7481 14.032 73.1481 14.032C71.5481 14.032 70.2841 14.512 69.3561 15.472C68.4601 16.4 68.0121 17.728 68.0121 19.456V34H59.8041V7.216H68.0121V10.576C68.8441 9.456 69.9321 8.576 71.2761 7.936C72.6201 7.264 74.1401 6.928 75.8361 6.928C77.8521 6.928 79.6441 7.36 81.2121 8.224C82.8121 9.088 84.0601 10.32 84.9561 11.92C85.8841 10.448 87.1481 9.248 88.7481 8.32C90.3481 7.392 92.0921 6.928 93.9801 6.928ZM118.825 6.88V13.696H129.817V20.032H118.825V27.424H131.257V34H110.617V0.303999H131.257V6.88H118.825ZM134.953 20.56C134.953 17.808 135.465 15.392 136.489 13.312C137.545 11.232 138.969 9.632 140.761 8.512C142.553 7.392 144.553 6.832 146.761 6.832C148.649 6.832 150.297 7.216 151.705 7.984C153.145 8.752 154.249 9.76 155.017 11.008V7.216H163.225V34H155.017V30.208C154.217 31.456 153.097 32.464 151.657 33.232C150.249 34 148.601 34.384 146.713 34.384C144.537 34.384 142.553 33.824 140.761 32.704C138.969 31.552 137.545 29.936 136.489 27.856C135.465 25.744 134.953 23.312 134.953 20.56ZM155.017 20.608C155.017 18.56 154.441 16.944 153.289 15.76C152.169 14.576 150.793 13.984 149.161 13.984C147.529 13.984 146.137 14.576 144.985 15.76C143.865 16.912 143.305 18.512 143.305 20.56C143.305 22.608 143.865 24.24 144.985 25.456C146.137 26.64 147.529 27.232 149.161 27.232C150.793 27.232 152.169 26.64 153.289 25.456C154.441 24.272 155.017 22.656 155.017 20.608ZM180.06 34.384C177.724 34.384 175.644 33.984 173.82 33.184C171.996 32.384 170.556 31.296 169.5 29.92C168.444 28.512 167.852 26.944 167.724 25.216H175.836C175.932 26.144 176.364 26.896 177.132 27.472C177.9 28.048 178.844 28.336 179.964 28.336C180.988 28.336 181.772 28.144 182.316 27.76C182.892 27.344 183.18 26.816 183.18 26.176C183.18 25.408 182.78 24.848 181.98 24.496C181.18 24.112 179.884 23.696 178.092 23.248C176.172 22.8 174.572 22.336 173.292 21.856C172.012 21.344 170.908 20.56 169.98 19.504C169.052 18.416 168.588 16.96 168.588 15.136C168.588 13.6 169.004 12.208 169.836 10.96C170.7 9.68 171.948 8.672 173.58 7.936C175.244 7.2 177.212 6.832 179.484 6.832C182.844 6.832 185.484 7.664 187.404 9.328C189.356 10.992 190.476 13.2 190.764 15.952H183.18C183.052 15.024 182.636 14.288 181.932 13.744C181.26 13.2 180.364 12.928 179.244 12.928C178.284 12.928 177.548 13.12 177.036 13.504C176.524 13.856 176.268 14.352 176.268 14.992C176.268 15.76 176.668 16.336 177.468 16.72C178.3 17.104 179.58 17.488 181.308 17.872C183.292 18.384 184.908 18.896 186.156 19.408C187.404 19.888 188.492 20.688 189.42 21.808C190.38 22.896 190.876 24.368 190.908 26.224C190.908 27.792 190.46 29.2 189.564 30.448C188.7 31.664 187.436 32.624 185.772 33.328C184.14 34.032 182.236 34.384 180.06 34.384ZM221.177 20.176C221.177 20.944 221.129 21.744 221.033 22.576H202.457C202.585 24.24 203.113 25.52 204.041 26.416C205.001 27.28 206.169 27.712 207.545 27.712C209.593 27.712 211.017 26.848 211.817 25.12H220.553C220.105 26.88 219.289 28.464 218.105 29.872C216.953 31.28 215.497 32.384 213.737 33.184C211.977 33.984 210.009 34.384 207.833 34.384C205.209 34.384 202.873 33.824 200.825 32.704C198.777 31.584 197.177 29.984 196.025 27.904C194.873 25.824 194.297 23.392 194.297 20.608C194.297 17.824 194.857 15.392 195.977 13.312C197.129 11.232 198.729 9.632 200.777 8.512C202.825 7.392 205.177 6.832 207.833 6.832C210.425 6.832 212.729 7.376 214.745 8.464C216.761 9.552 218.329 11.104 219.449 13.12C220.601 15.136 221.177 17.488 221.177 20.176ZM212.777 18.016C212.777 16.608 212.297 15.488 211.337 14.656C210.377 13.824 209.177 13.408 207.737 13.408C206.361 13.408 205.193 13.808 204.233 14.608C203.305 15.408 202.729 16.544 202.505 18.016H212.777Z" fill="#333333"/>
<path d="M229.347 34.384C227.907 34.384 226.723 33.968 225.795 33.136C224.899 32.272 224.451 31.216 224.451 29.968C224.451 28.688 224.899 27.616 225.795 26.752C226.723 25.888 227.907 25.456 229.347 25.456C230.755 25.456 231.907 25.888 232.803 26.752C233.731 27.616 234.195 28.688 234.195 29.968C234.195 31.216 233.731 32.272 232.803 33.136C231.907 33.968 230.755 34.384 229.347 34.384Z" fill="#00B074"/>
</svg>
